<svg id="visual" viewBox="0 0 900 300" width="900" height="300" xmlns="http://www.w3.org/2000/svg" xmlns:xlink="http://www.w3.org/1999/xlink" version="1.1"><rect x="0" y="0" width="900" height="300" fill="#7393B3"></rect><path d="M0 125L21.5 130.2C43 135.3 86 145.7 128.8 156.5C171.7 167.3 214.3 178.7 257.2 183.5C300 188.3 343 186.7 385.8 178C428.7 169.3 471.3 153.7 514.2 152C557 150.3 600 162.7 642.8 158.5C685.7 154.3 728.3 133.7 771.2 119.5C814 105.3 857 97.7 878.5 93.8L900 90L900 301L878.5 301C857 301 814 301 771.2 301C728.3 301 685.7 301 642.8 301C600 301 557 301 514.2 301C471.3 301 428.7 301 385.8 301C343 301 300 301 257.2 301C214.3 301 171.7 301 128.8 301C86 301 43 301 21.5 301L0 301Z" fill="#7ba9d8"></path><path d="M0 232L21.5 228.7C43 225.3 86 218.7 128.8 212.2C171.7 205.7 214.3 199.3 257.2 193.5C300 187.7 343 182.3 385.8 185.5C428.7 188.7 471.3 200.3 514.2 194.7C557 189 600 166 642.8 153C685.7 140 728.3 137 771.2 149.5C814 162 857 190 878.5 204L900 218L900 301L878.5 301C857 301 814 301 771.2 301C728.3 301 685.7 301 642.8 301C600 301 557 301 514.2 301C471.3 301 428.7 301 385.8 301C343 301 300 301 257.2 301C214.3 301 171.7 301 128.8 301C86 301 43 301 21.5 301L0 301Z" fill="#678fb3"></path><path d="M0 248L21.5 234.8C43 221.7 86 195.3 128.8 187.3C171.7 179.3 214.3 189.7 257.2 200C300 210.3 343 220.7 385.8 213C428.7 205.3 471.3 179.7 514.2 175.5C557 171.3 600 188.7 642.8 194.8C685.7 201 728.3 196 771.2 198.3C814 200.7 857 210.3 878.5 215.2L900 220L900 301L878.5 301C857 301 814 301 771.2 301C728.3 301 685.7 301 642.8 301C600 301 557 301 514.2 301C471.3 301 428.7 301 385.8 301C343 301 300 301 257.2 301C214.3 301 171.7 301 128.8 301C86 301 43 301 21.5 301L0 301Z" fill="#557690"></path><path d="M0 201L21.5 200.8C43 200.7 86 200.3 128.8 199.7C171.7 199 214.3 198 257.2 204.3C300 210.7 343 224.3 385.8 233.2C428.7 242 471.3 246 514.2 247.8C557 249.7 600 249.3 642.8 245.5C685.7 241.7 728.3 234.3 771.2 226.2C814 218 857 209 878.5 204.5L900 200L900 301L878.5 301C857 301 814 301 771.2 301C728.3 301 685.7 301 642.8 301C600 301 557 301 514.2 301C471.3 301 428.7 301 385.8 301C343 301 300 301 257.2 301C214.3 301 171.7 301 128.8 301C86 301 43 301 21.5 301L0 301Z" fill="#455d6f"></path><path d="M0 237L21.5 235.3C43 233.7 86 230.3 128.8 235C171.7 239.7 214.3 252.3 257.2 259C300 265.7 343 266.3 385.8 261C428.7 255.7 471.3 244.3 514.2 247C557 249.7 600 266.3 642.8 275.2C685.7 284 728.3 285 771.2 278.7C814 272.3 857 258.7 878.5 251.8L900 245L900 301L878.5 301C857 301 814 301 771.2 301C728.3 301 685.7 301 642.8 301C600 301 557 301 514.2 301C471.3 301 428.7 301 385.8 301C343 301 300 301 257.2 301C214.3 301 171.7 301 128.8 301C86 301 43 301 21.5 301L0 301Z" fill="#36454f"></path></svg>