<svg xmlns="http://www.w3.org/2000/svg" version="1.1" viewBox="0 0 202.66396761133603 200" style="max-height: 500px" width="202.66396761133603" height="200">
<path transform="translate(30.554443359375,-0.662841796875)" fill="#6EC1CE" d="M0 0 C1.68114861 -0.00842113 3.36228778 -0.01894977 5.04341125 -0.03141785 C9.59315188 -0.05840659 14.1423428 -0.05378091 18.69212794 -0.04171729 C22.49675478 -0.0345713 26.30128091 -0.04309525 30.10589987 -0.05162269 C39.08436455 -0.07155616 48.06256285 -0.06602704 57.04101562 -0.04394531 C66.29004036 -0.02158402 75.53836701 -0.03918146 84.7873258 -0.0769946 C92.74175601 -0.10826765 100.69597057 -0.11613267 108.65045458 -0.10504085 C113.3953894 -0.09856581 118.13992157 -0.10049834 122.88480949 -0.12436485 C127.3478495 -0.14567193 131.80990762 -0.13756821 136.27288628 -0.10727119 C137.90585141 -0.10096267 139.53889339 -0.10475895 141.17180252 -0.11968231 C149.29298989 -0.18785812 156.04809951 -0.21933977 162.77037907 4.97424603 C168.81951886 11.07183952 170.56503228 16.89118913 170.58599854 25.31610107 C170.58896966 25.98357683 170.59194078 26.65105259 170.59500194 27.33875489 C170.60366946 29.57407524 170.60519553 31.80934192 170.60668945 34.04467773 C170.61131903 35.64803176 170.61634388 37.25138468 170.62173462 38.85473633 C170.63484776 43.2102692 170.64130154 47.56578665 170.64574528 51.92133617 C170.64867795 54.64379012 170.65278314 57.36623988 170.65724945 60.08869171 C170.67092195 68.6103125 170.68058964 77.13192368 170.68445134 85.65355468 C170.68893066 95.48354324 170.70647373 105.31339266 170.73545194 115.14333892 C170.75708464 122.74603234 170.76715648 130.34868666 170.76849246 137.95141053 C170.76953941 142.49003847 170.77542376 147.02853556 170.79331207 151.56713104 C170.80982009 155.83859582 170.81193505 160.10983178 170.80317307 164.38131714 C170.80240413 165.94537215 170.80672642 167.5094396 170.81663132 169.07346344 C170.8729216 178.51908586 170.68283897 185.85316519 165.25805664 193.9128418 C157.22129914 201.77100469 148.62682359 201.23831679 138.05883789 201.18041992 C136.39577625 201.18584582 134.73271942 201.1929711 133.06967163 201.20166016 C128.56963103 201.21984088 124.0699587 201.21284778 119.56991196 201.20014381 C114.85177395 201.18998886 110.13366664 201.19941641 105.41552734 201.20568848 C97.49351361 201.21295762 89.57164924 201.20339643 81.6496582 201.18432617 C72.50185711 201.16255883 63.35441267 201.16961072 54.20662022 201.19163179 C46.34055061 201.20980669 38.47458812 201.21233391 30.6085043 201.20187712 C25.91567072 201.19565367 21.22300458 201.19477488 16.53018188 201.20802307 C12.11739095 201.21961141 7.70505809 201.21150163 3.29231644 201.18844604 C1.67667017 201.18317484 0.06098508 201.18464545 -1.55464554 201.1934967 C-16.73547184 201.26897233 -16.73547184 201.26897233 -23.55444336 196.6628418 C-25.61303711 194.5925293 -25.61303711 194.5925293 -26.99194336 192.5378418 C-27.70157227 191.51303711 -27.70157227 191.51303711 -28.42553711 190.4675293 C-30.72778312 186.78712219 -30.69116619 184.31908013 -30.71507263 179.95310974 C-30.72016045 179.25537998 -30.72524827 178.55765021 -30.73049027 177.83877712 C-30.74624893 175.48903704 -30.75474889 173.13932778 -30.76318359 170.78955078 C-30.77271956 169.1092967 -30.7826106 167.42904461 -30.79283142 165.74879456 C-30.82425495 160.21886536 -30.84449174 154.68892097 -30.86303711 149.15893555 C-30.86633443 148.21813432 -30.86963175 147.27733309 -30.87302899 146.30802274 C-30.90381847 137.43430992 -30.93052635 128.56059375 -30.94744778 119.68684292 C-30.96934203 108.33806224 -31.01127783 96.98975547 -31.08088535 85.64116424 C-31.12816535 77.66143412 -31.15238693 69.68183165 -31.15964466 61.70196587 C-31.16459615 56.93674198 -31.17962818 52.1720518 -31.21938896 47.40698051 C-31.25633802 42.91950686 -31.26463811 38.43286986 -31.25138283 33.94527245 C-31.25143665 32.30259601 -31.26167955 30.65988175 -31.28313446 29.01734543 C-31.47373001 13.59495928 -31.47373001 13.59495928 -26.3324604 7.4063015 C-25.45234197 6.54328895 -25.45234197 6.54328895 -24.55444336 5.6628418 C-24.0281024 5.12755167 -23.50176144 4.59226154 -22.95947075 4.0407505 C-16.50159372 -1.1354721 -7.83031316 -0.04521349 0 0 Z"/>
<path transform="translate(101,50)" fill="#1C6E75" d="M0 0 C5.61275749 4.72723887 10.99311645 9.66094357 16.33178711 14.69458008 C17.69394348 15.97700592 17.69394348 15.97700592 19.08361816 17.28533936 C27.43986292 25.17451117 35.71145021 33.15024917 43.95200253 41.16006947 C49.47429638 46.5238246 55.02329628 51.85256935 60.65063477 57.10620117 C65.58564358 61.7136017 70.45679423 66.37895769 75.26462752 71.11903685 C77.80108559 73.61586316 80.3563344 76.07746891 82.99073601 78.47107887 C93.05330207 87.64891989 100.7401795 95.76828321 101.45256835 109.75726885 C101.71193201 121.39524905 101.50301091 133.30981236 94.8125 143.25 C85.4028294 152.45056681 71.89936858 152.11504603 59.50294495 152.23876953 C42.57893101 151.85704503 33.34624674 144.67704885 21.93716431 132.84765625 C18.6671969 129.36324849 15.51232384 125.78652628 12.37103271 122.1862793 C9.10343241 118.49154641 5.709531 114.91654564 2.32617188 111.328125 C-4.24094892 104.32719997 -10.66343683 97.20982744 -17 90 C-12.21149366 90 -8.31734472 92.78347285 -4.15625 94.98046875 C4.12601844 99.26171653 11.3006548 100.36099892 20.5625 100.3125 C21.63008545 100.30903564 22.6976709 100.30557129 23.79760742 100.30200195 C31.92200649 100.19043862 39.17277055 99.25961631 47 97 C48.08410156 96.71382813 49.16820312 96.42765625 50.28515625 96.1328125 C52.86517952 95.44785057 55.43480121 94.73814904 58 94 C58 94.66 58 95.32 58 96 C61.48809191 95.22969878 61.48809191 95.22969878 65 94 C65.495 92.515 65.495 92.515 66 91 C68.5625 89.8125 68.5625 89.8125 71 89 C69.60240095 85.45481116 69.60240095 85.45481116 68 82 C62.06 82.495 62.06 82.495 56 83 C56 83.99 56 84.98 56 86 C43.19331171 86.86401945 32.19727188 84.62026916 22.14453125 76.24609375 C17.76960065 71.66397153 14.39041317 66.33008217 11 61 C8.16553468 62.33096633 5.33242622 63.66470562 2.5 65 C1.64519043 65.40138184 0.79038086 65.80276367 -0.09033203 66.21630859 C-4.31624942 68.21146759 -8.51096946 70.24068435 -12.6484375 72.4140625 C-13.36322266 72.78660156 -14.07800781 73.15914063 -14.81445312 73.54296875 C-16.16059498 74.24985272 -17.50081265 74.96816746 -18.83398438 75.69921875 C-21.64434443 77.16833819 -23.62070684 78.01365876 -26.8203125 77.8984375 C-29 77 -29 77 -31 74 C-23.05351569 68.99837565 -14.7840713 64.77249946 -6.375 60.625 C-5.07142663 59.97824328 -3.76803993 59.33111017 -2.46484375 58.68359375 C0.68796987 57.11806259 3.84325839 55.55759856 7 54 C6.22225866 48.94468132 5.14051606 43.98283716 4 39 C2.93563721 39.47421387 1.87127441 39.94842773 0.7746582 40.43701172 C-3.1852058 42.20098227 -7.14562089 43.96371256 -11.10620117 45.72607422 C-12.81826524 46.48810709 -14.53018092 47.25047342 -16.24194336 48.01318359 C-18.70647602 49.11123561 -21.17154487 50.20807594 -23.63671875 51.3046875 C-24.39836838 51.6443454 -25.16001801 51.9840033 -25.94474792 52.33395386 C-36.50627676 57.02821276 -36.50627676 57.02821276 -39.1875 56.875 C-41.57483036 55.72249569 -41.92586012 54.35648308 -43 52 C-33.1936586 46.95916961 -23.26126644 42.39371997 -13.125 38.0625 C-11.74332778 37.46847516 -10.36181661 36.87407558 -8.98046875 36.27929688 C-5.65547975 34.8485664 -2.32838032 33.42282642 1 32 C1.06942864 24.26814297 1.06942864 24.26814297 0.5 16.5625 C-0.0611981 11.02956097 -0.09672807 5.55649001 0 0 Z"/>
<path transform="translate(544,42)" fill="#2A2123" d="M0 0 C6.93 0 13.86 0 21 0 C21.33 21.78 21.66 43.56 22 66 C30.8337088 53.0082956 30.8337088 53.0082956 38.10449219 40.01513672 C40.23137106 36.04151775 42.24926465 32.61100914 46 30 C53.81834069 27.89383475 62.07904987 28.87584769 70 30 C65.88588748 36.30229025 61.55960923 42.40384771 57.0625 48.4375 C52.27535365 54.89403927 47.55395609 61.37640272 43 68 C46.95532192 74.11448134 51.16502439 79.92015292 55.6875 85.625 C60.32089408 91.53174054 64.91073462 97.4640818 69.375 103.5 C69.84510498 104.1285791 70.31520996 104.7571582 70.79956055 105.40478516 C74 109.76233927 74 109.76233927 74 112 C54.11434187 114.68659399 54.11434187 114.68659399 47.71630859 110.50878906 C43.78040485 106.60585937 40.98157914 101.99330845 38.26806641 97.18945312 C36.46642701 94.0787288 34.35826408 91.30185882 32.1875 88.4375 C31.12271678 86.95997607 30.0591676 85.48155468 29 84 C24.45158774 87.95462476 21.92549848 91.79566264 21.3125 97.828125 C20.98354424 102.56078014 21.03328702 107.23995598 21 112 C14.07 112 7.14 112 0 112 C0 75.04 0 38.08 0 0 Z"/>
<path transform="translate(436,68)" fill="#2A2123" d="M0 0 C0 28.38 0 56.76 0 86 C-4.62 86 -9.24 86 -14 86 C-16.8792292 82.65637899 -18.40448465 80.82923685 -20 77 C-20.49814209 77.30292969 -20.99628418 77.60585937 -21.50952148 77.91796875 C-23.80710651 79.29933563 -26.12162943 80.64953174 -28.4375 82 C-29.22060547 82.47695312 -30.00371094 82.95390625 -30.81054688 83.4453125 C-36.33400036 86.62754907 -40.63136429 87.91714679 -47 87 C-53.00536529 85.34940252 -59.04339315 82.20586895 -62.33984375 76.8046875 C-71.14993927 60.10381078 -71.07470222 38.1702519 -67 20 C-64.74977478 13.42186558 -61.96069039 7.71894266 -56.00390625 3.8671875 C-50.46115196 1.46856868 -45.06614896 0.685855 -39.08203125 0.5859375 C-37.97428596 0.55688828 -37.97428596 0.55688828 -36.84416199 0.5272522 C-34.50038882 0.46801942 -32.15655725 0.4214601 -29.8125 0.375 C-28.25974573 0.33673645 -26.70701079 0.29768014 -25.15429688 0.2578125 C-16.76556118 0.05355236 -8.39495063 0 0 0 Z M-44 23 C-48.94574105 32.36158128 -49.42677982 44.60042464 -47.43359375 54.9375 C-46.22631563 58.78056332 -45.06693459 61.31150464 -42 64 C-39.32917961 65.52174919 -39.32917961 65.52174919 -33 65 C-28.71 62.69 -24.42 60.38 -20 58 C-20 45.46 -20 32.92 -20 20 C-37.25643105 18.37076344 -37.25643105 18.37076344 -44 23 Z"/>
<path transform="translate(256.91357421875,47.77294921875)" fill="#2A2023" d="M0 0 C1.14072968 0.00015106 2.28145935 0.00030212 3.45675659 0.00045776 C4.6725943 0.01078033 5.88843201 0.02110291 7.14111328 0.03173828 C8.39779816 0.03456818 9.65448303 0.03739807 10.94924927 0.04031372 C14.27343442 0.04958956 17.59734002 0.06752697 20.92144775 0.08972168 C24.32016599 0.11026266 27.71891322 0.119333 31.11767578 0.12939453 C37.7740124 0.15141702 44.43018086 0.1859277 51.08642578 0.22705078 C51.08642578 6.49705078 51.08642578 12.76705078 51.08642578 19.22705078 C46.73390625 19.30052734 46.73390625 19.30052734 42.29345703 19.37548828 C39.47691785 19.42952931 36.66046233 19.48682455 33.84399414 19.54443359 C31.88963069 19.58266867 29.93519819 19.61753105 27.98071289 19.64892578 C25.16804356 19.69469513 22.35584739 19.75267001 19.54345703 19.81298828 C18.67243851 19.82453949 17.80141998 19.8360907 16.90400696 19.84799194 C10.73896226 19.95866389 10.73896226 19.95866389 5.08642578 22.22705078 C1.78406107 28.17026162 1.78406107 28.17026162 2.08642578 44.22705078 C14.95642578 44.22705078 27.82642578 44.22705078 41.08642578 44.22705078 C40.08642578 61.22705078 40.08642578 61.22705078 39.08642578 63.22705078 C26.87642578 63.22705078 14.66642578 63.22705078 2.08642578 63.22705078 C2.08642578 77.41705078 2.08642578 91.60705078 2.08642578 106.22705078 C-5.17357422 106.22705078 -12.43357422 106.22705078 -19.91357422 106.22705078 C-19.95882005 94.76106072 -19.99548759 83.2951303 -20.01719856 71.82907104 C-20.02762051 66.50450311 -20.04175073 61.17999961 -20.06445312 55.85546875 C-20.08623811 50.71372853 -20.09815479 45.57205016 -20.1033287 40.43026733 C-20.10701431 38.47194445 -20.11421133 36.51362482 -20.12503433 34.55532837 C-20.13962439 31.80520401 -20.14154902 29.05533283 -20.140625 26.30517578 C-20.14781555 25.50172226 -20.1550061 24.69826874 -20.16241455 23.87046814 C-20.13887963 17.3659088 -19.67624699 10.42274223 -15.16357422 5.35205078 C-14.69435547 4.79775391 -14.22513672 4.24345703 -13.74169922 3.67236328 C-9.6865045 0.46633327 -5.02289328 -0.02232397 0 0 Z"/>
<path transform="translate(514,74)" fill="#2A2123" d="M0 0 C5.19713052 5.4941094 7.17795832 10.5045338 7.1875 17.9375 C7.0946875 20.4434375 7.0946875 20.4434375 7 23 C1.06 23 -4.88 23 -11 23 C-11.65104167 20.72135417 -12.30208333 18.44270833 -12.953125 16.1640625 C-13.8330401 13.9077605 -13.8330401 13.9077605 -15.765625 12.7265625 C-18.44349374 11.855787 -20.68533713 11.73453482 -23.5 11.75 C-24.90765625 11.74226563 -24.90765625 11.74226563 -26.34375 11.734375 C-29.07458344 12.00745834 -30.70602935 12.51934622 -33 14 C-34.42041821 16.84083641 -34.31452272 18.85477278 -34 22 C-31.19505946 25.52011693 -28.98906457 26.58328047 -24.60546875 27.34375 C-23.56712891 27.53839844 -22.52878906 27.73304687 -21.45898438 27.93359375 C-19.83959961 28.21396484 -19.83959961 28.21396484 -18.1875 28.5 C-1.0726568 31.49535578 -1.0726568 31.49535578 4.3125 38.625 C9.10658356 45.55975723 9.55555568 53.20349464 8.52734375 61.39453125 C7.11822256 68.35663372 4.13624342 72.45492729 -1.51171875 76.67578125 C-8.78300164 80.54542787 -15.64626952 81.52770712 -23.8125 81.4375 C-24.77937744 81.42920166 -25.74625488 81.42090332 -26.74243164 81.41235352 C-35.86881676 81.19690243 -43.96598805 80.05159373 -51.0625 73.875 C-56.47603146 67.72205936 -57 60.93184161 -57 53 C-50.73 53 -44.46 53 -38 53 C-37.01 55.97 -36.02 58.94 -35 62 C-30.32971092 64.84773724 -24.34770505 64.45455493 -19 64 C-15.67596618 63.02634007 -15.67596618 63.02634007 -13 61 C-12.72290073 59.00250681 -12.72290073 59.00250681 -12.6875 56.6875 C-12.65011719 55.90761719 -12.61273438 55.12773437 -12.57421875 54.32421875 C-13.16325614 51.10883116 -14.5183315 50.08154346 -17 48 C-19.53055626 47.1059092 -19.53055626 47.1059092 -22.32421875 46.7265625 C-23.35353516 46.5409375 -24.38285156 46.3553125 -25.44335938 46.1640625 C-27.58585465 45.80805486 -29.72907929 45.45640593 -31.87304688 45.109375 C-39.46662952 43.72958276 -46.46807818 41.52598741 -51.39916992 35.20703125 C-55.76205612 27.94619779 -56.29070352 19.04880547 -54.5390625 10.83984375 C-51.82247789 3.8246635 -47.1852366 -0.71404574 -40.5 -3.875 C-27.78629606 -9.0799392 -11.03117469 -9.1478034 0 0 Z"/>
<path transform="translate(330,42)" fill="#2A2123" d="M0 0 C6.6 0 13.2 0 20 0 C20 36.96 20 73.92 20 112 C13.4 112 6.8 112 0 112 C0 75.04 0 38.08 0 0 Z"/>
<path transform="translate(111,110)" fill="#FBFCFC" d="M0 0 C2.8525499 2.7811446 5.00894941 5.43638913 7.125 8.8125 C13.10854701 17.45681578 21.81975934 22.60928542 32 25 C36.66553582 25.56464946 41.30353166 25.86287684 46 26 C46 25.01 46 24.02 46 23 C55.16891892 20.35810811 55.16891892 20.35810811 59 22 C60.875 24.375 60.875 24.375 62 27 C61.505 28.485 61.505 28.485 61 30 C59.34561387 30.69658363 57.67745682 31.36096883 56 32 C55.505 32.515625 55.01 33.03125 54.5 33.5625 C52.49293911 35.48593335 50.70332474 35.63468585 48 36 C48 35.34 48 34.68 48 34 C46.78183594 34.42152344 45.56367188 34.84304687 44.30859375 35.27734375 C42.68500617 35.83105281 41.06130202 36.38442012 39.4375 36.9375 C38.63763672 37.21529297 37.83777344 37.49308594 37.01367188 37.77929688 C23.05142662 42.50936364 3.33451969 44.0779032 -10.48828125 38.24609375 C-11.31714844 37.83488281 -12.14601563 37.42367187 -13 37 C-13.90105469 36.59910156 -14.80210938 36.19820312 -15.73046875 35.78515625 C-23.71174433 31.9014608 -29.72944596 26.15017691 -36 20 C-32.73450975 16.27008447 -29.00356242 14.23969666 -24.609375 12.109375 C-23.90476135 11.75989807 -23.20014771 11.41042114 -22.47418213 11.050354 C-20.2364501 9.94262793 -17.99339932 8.84619555 -15.75 7.75 C-14.22619694 6.99813627 -12.70275516 6.24553983 -11.1796875 5.4921875 C-7.45725437 3.65294913 -3.73001242 1.82381511 0 0 Z"/>
<path transform="translate(101,49)" fill="#FCFDFD" d="M0 0 C0.34077314 3.62433988 0.6712218 7.24955391 1 10.875 C1.09539062 11.88820313 1.19078125 12.90140625 1.2890625 13.9453125 C1.86095879 20.31787113 2.12770164 26.60250235 2 33 C-2.98443576 35.36739177 -7.98975428 37.68791108 -13 40 C-14.73660889 40.8036499 -14.73660889 40.8036499 -16.50830078 41.62353516 C-19.75592037 43.12406948 -23.00909491 44.61207554 -26.26528931 46.09390259 C-27.58927317 46.69835257 -28.91168811 47.30625089 -30.23251343 47.91757202 C-32.11445814 48.78769126 -34.00169812 49.64516563 -35.890625 50.5 C-36.99438477 51.0053125 -38.09814453 51.510625 -39.23535156 52.03125 C-42 53 -42 53 -45 52 C-46.38671875 49.453125 -46.38671875 49.453125 -47.6875 46.25 C-48.12449219 45.20328125 -48.56148437 44.1565625 -49.01171875 43.078125 C-49.94974242 40.1565335 -50.20805392 38.03646256 -50 35 C-51.32 35 -52.64 35 -54 35 C-58.05202853 28.73777409 -58.05202853 28.73777409 -57.82597351 25.53227234 C-57 23 -57 23 -55.06599426 21.57356262 C-54.23959946 21.2074437 -53.41320465 20.84132477 -52.56176758 20.46411133 C-51.65383453 20.05101715 -50.74590149 19.63792297 -49.81045532 19.21231079 C-48.88300507 18.81224823 -47.95555481 18.41218567 -47 18 C-46.1796225 17.62837738 -45.359245 17.25675476 -44.51400757 16.87387085 C-42.02293376 15.75040361 -39.52020031 14.65822614 -37.01171875 13.57421875 C-36.10549271 13.18176468 -35.19926666 12.78931061 -34.26557922 12.38496399 C-32.36974443 11.56577536 -30.47318563 10.74826035 -28.57592773 9.93237305 C-25.67377746 8.68158577 -22.77739183 7.41802931 -19.88085938 6.15429688 C-18.02898701 5.35597893 -16.1767849 4.55842537 -14.32421875 3.76171875 C-13.46269699 3.38367599 -12.60117523 3.00563324 -11.71354675 2.61613464 C-10.50122124 2.09978203 -10.50122124 2.09978203 -9.2644043 1.57299805 C-8.55954391 1.268311 -7.85468353 0.96362396 -7.12846375 0.64970398 C-4.66757616 -0.10147088 -2.55870825 -0.1126284 0 0 Z"/>
<path transform="translate(105,89)" fill="#FAFCFC" d="M0 0 C0.70045456 1.91197039 1.384919 3.82980435 2.0625 5.75 C2.44535156 6.81734375 2.82820313 7.8846875 3.22265625 8.984375 C4.01405871 12.05453931 4.10773074 13.12376657 3 16 C0.55310754 17.55003935 -1.76409287 18.82454004 -4.359375 20.07421875 C-5.10076721 20.44352005 -5.84215942 20.81282135 -6.60601807 21.1933136 C-8.17646772 21.9721549 -9.75029201 22.74422277 -11.32714844 23.51000977 C-13.73374802 24.67960164 -16.1290989 25.86999458 -18.5234375 27.06445312 C-20.05146534 27.81896119 -21.58009271 28.57225653 -23.109375 29.32421875 C-23.82414001 29.67836349 -24.53890503 30.03250824 -25.27532959 30.39738464 C-28.83850177 32.12011803 -32.03219024 33.46564898 -36 34 C-37.15627814 32.44521347 -38.2996219 30.88080281 -39.4375 29.3125 C-40.07558594 28.44238281 -40.71367188 27.57226562 -41.37109375 26.67578125 C-42.98971649 24.01689258 -43.6083962 22.06112831 -44 19 C-35.3695652 14.46942055 -26.55367727 10.37087571 -17.65859985 6.38928223 C-16.42807851 5.83818897 -15.19840003 5.2852098 -13.96957397 4.73034668 C-12.21804766 3.94061901 -10.46260206 3.15960167 -8.70703125 2.37890625 C-7.6806958 1.9207251 -6.65436035 1.46254395 -5.59692383 0.99047852 C-3 0 -3 0 0 0 Z"/>
<path transform="translate(84,139)" fill="#30818A" d="M0 0 C3.99500618 1.3697164 6.80009492 3.25722422 10 6 C9.34 6 8.68 6 8 6 C7.67 6.66 7.34 7.32 7 8 C5.83035398 6.8572081 4.66435444 5.71068285 3.5 4.5625 C2.8503125 3.92441406 2.200625 3.28632813 1.53125 2.62890625 C0 1 0 1 0 0 Z"/>
</svg>