<?xml version="1.0" encoding="UTF-8"?>
<svg version="1.1" xmlns="http://www.w3.org/2000/svg" width="512" height="490">
<path d="M0 0 C1.32064453 0.49185791 1.32064453 0.49185791 2.66796875 0.99365234 C15.6369763 5.92196179 27.93704414 11.7745663 39.98046875 18.65234375 C40.69122559 19.05694824 41.40198242 19.46155273 42.13427734 19.87841797 C44 21 44 21 46.48828125 22.87890625 C50.43270674 24.63948186 53.8367981 23.73449463 58 23 C59.32668701 22.7836792 59.32668701 22.7836792 60.68017578 22.56298828 C62.60728055 22.24541421 64.53327743 21.92106138 66.45825195 21.59082031 C105.5710372 14.93411034 144.86438991 15.34562885 183.7890625 23.23046875 C190.4417963 24.49016224 193.66658005 23.9598227 199.375 20.1875 C214.80428664 10.5107113 231.4921456 3.00129022 249 -2 C250.18722656 -2.37125 251.37445313 -2.7425 252.59765625 -3.125 C258.78396311 -4.62528334 265.17240359 -4.40882509 271.5 -4.4375 C272.78003906 -4.47037109 274.06007813 -4.50324219 275.37890625 -4.53710938 C282.88876174 -4.57982313 288.33365225 -4.21380173 294 1 C307.34710018 14.79801573 309.19568921 41.41099855 309.25 59.3125 C309.25532745 59.98062714 309.26065491 60.64875427 309.2661438 61.33712769 C309.31980741 69.49900794 308.85290171 77.11194316 306.9375 85.0625 C305.96978007 89.38639701 305.67101418 92.25598591 307.5234375 96.4453125 C309.48328402 99.22120432 311.52088572 101.78995026 313.71582031 104.37402344 C327.3549765 121.64337329 334.02794867 148.19315926 334.23828125 169.703125 C334.2480751 170.53029526 334.25786896 171.35746552 334.26795959 172.20970154 C334.57602627 205.04171083 331.84739771 237.14168698 317 267 C316.4328125 268.14984375 315.865625 269.2996875 315.28125 270.484375 C309.36287033 281.94451018 301.84821233 291.66261821 293 301 C292.15566406 301.90878906 291.31132812 302.81757813 290.44140625 303.75390625 C283.92265858 310.55648909 276.99767843 316.03843638 269 321 C268.4009082 321.37366699 267.80181641 321.74733398 267.18457031 322.13232422 C250.0058484 332.68342503 231.40581705 338.89258666 212 344 C212.41572266 345.41152344 212.41572266 345.41152344 212.83984375 346.8515625 C213.20207031 348.09679687 213.56429688 349.34203125 213.9375 350.625 C214.29714844 351.85476563 214.65679687 353.08453125 215.02734375 354.3515625 C216.83011646 361.11377017 217.15764388 367.41919405 217.17700195 374.37646484 C217.18357315 375.40812271 217.19014435 376.43978058 217.19691467 377.50270081 C217.21657267 380.90544719 217.22829151 384.30814966 217.23828125 387.7109375 C217.24235678 388.87593403 217.2464323 390.04093056 217.25063133 391.24123001 C217.27145675 397.40365672 217.2857756 403.56606138 217.29516602 409.72851562 C217.30624308 416.08604086 217.34066848 422.44321733 217.38033772 428.80061913 C217.40649494 433.69746547 217.41485692 438.5942284 217.41844749 443.49113846 C217.42331308 445.83464548 217.4349262 448.17814879 217.45348549 450.52158737 C217.47786454 453.80292169 217.47691413 457.08334871 217.4699707 460.36474609 C217.48918579 461.80825691 217.48918579 461.80825691 217.50878906 463.28092957 C217.45452383 470.33497706 215.92894406 475.74355797 211.1484375 481.05859375 C210.27058594 481.74115234 210.27058594 481.74115234 209.375 482.4375 C208.78460938 482.91058594 208.19421875 483.38367188 207.5859375 483.87109375 C202.17489705 487.72279496 193.4134913 486.72741627 187 486 C181.1566894 484.08253457 177.91707234 480.3674131 175 475 C174.10026801 472.30080404 173.87362386 470.75644923 173.86869812 467.98847961 C173.86268585 466.76747559 173.86268585 466.76747559 173.85655212 465.52180481 C173.85708084 464.63200424 173.85760956 463.74220367 173.8581543 462.82543945 C173.85294266 461.41492813 173.85294266 461.41492813 173.84762573 459.97592163 C173.84026665 457.929773 173.83492208 455.88361638 173.83133507 453.83745766 C173.82415783 450.58568031 173.80847706 447.33405284 173.78999329 444.08232117 C173.73761652 434.83476957 173.68965718 425.58729599 173.67407227 416.33959961 C173.66391314 410.6819729 173.63437979 405.02471794 173.59275246 399.367239 C173.58053932 397.22298195 173.57530323 395.07867213 173.57755089 392.93438148 C173.59295973 373.41687519 171.96296722 357.35794575 158.75 342.0625 C154.16311533 336.46509476 152.55442732 330.96128046 153.203125 323.73828125 C154.72995999 316.31616671 158.93229387 311.28308668 165 307 C171.25417278 304.80979036 177.70992228 304.10290154 184.25 303.1875 C212.74895149 298.94982636 240.13013581 290.83337841 261 270 C261.69609375 269.31550781 262.3921875 268.63101562 263.109375 267.92578125 C285.34882811 244.60883525 290.65289694 207.8170158 290.35107422 176.99414062 C289.69790356 154.64930945 282.22652981 134.63584335 267.9296875 117.390625 C261.20311868 109.05730492 257.99049941 102.84876631 259 92 C259.86272069 88.76990833 260.91267489 85.63777691 261.9765625 82.46875 C266.11280416 68.44973246 265.26006282 55.18593004 263 41 C244.09882948 45.20470954 226.5225931 55.14725385 210.453125 65.67504883 C203.53698334 70.14112948 197.64525882 72.09843132 189.31738281 70.47802734 C186.07865694 69.74537136 182.85250425 68.96804805 179.625 68.1875 C139.64050975 59.05263761 98.49174831 59.29747791 58.64794922 69.10595703 C49.43677677 71.27798258 41.51426963 72.22819434 32.97265625 67.5234375 C31.32318991 66.49410976 29.68658753 65.44392212 28.0625 64.375 C26.30472937 63.27337069 24.54691711 62.1718078 22.7890625 61.0703125 C21.19202755 60.04793766 19.59559886 59.02461467 18 58 C5.50066064 50.13224482 -7.95193776 44.48835902 -22 40 C-24.32143821 55.8381994 -24.46753553 72.76707543 -18.92578125 87.94140625 C-17.09522844 93.98918199 -16.69677331 101.27378389 -18.8046875 107.30078125 C-20.05401429 109.38155656 -21.42218244 111.15432039 -23 113 C-40.09022828 133.24184832 -48.65563756 154.68498873 -48.4375 181.3125 C-48.43445862 182.09969421 -48.43141724 182.88688843 -48.42828369 183.69793701 C-48.24355498 216.15518198 -41.08139686 248.13337648 -18.0625 272.3125 C3.78159946 293.04732878 34.08645097 299.9391896 62.828125 304.83203125 C63.55217529 304.95803711 64.27622559 305.08404297 65.0222168 305.21386719 C66.89891989 305.53454829 68.77941801 305.8328074 70.66015625 306.12890625 C76.79159901 307.72810126 81.48838356 310.60716046 85 316 C88.70700189 322.88443208 88.86392591 328.42910626 87.0625 335.875 C85.07550738 340.66659944 81.5499067 344.28767066 78.22265625 348.19921875 C70.89546713 357.43224968 68.6912384 367.39919647 68.74462891 378.92919922 C68.74100845 379.88966156 68.737388 380.8501239 68.73365784 381.83969116 C68.72679592 383.91304453 68.72425235 385.98641584 68.72560501 388.05978012 C68.72657533 391.3481733 68.71356816 394.63624416 68.69662476 397.92459106 C68.650505 407.26985197 68.62575254 416.6150783 68.61914062 425.96044922 C68.61411201 431.68862903 68.58979647 437.41647018 68.55381393 443.14453506 C68.5440504 445.31887906 68.54166505 447.49326983 68.54698563 449.66762924 C68.55409632 452.71612241 68.53669217 455.76361314 68.51416016 458.81201172 C68.52233261 459.69856445 68.53050507 460.58511719 68.53892517 461.49853516 C68.44720992 468.51791508 67.07560647 475.68365767 62.16216469 480.98168755 C55.25642247 487.09006881 47.97620587 486.78455626 39.09570312 486.26953125 C34.55031673 485.68494288 31.77130554 483.50827322 29 480 C25.55703169 475.24931672 23.86798426 470.71697265 23.88647461 464.87402344 C23.88655014 464.07349548 23.88662567 463.27296753 23.88670349 462.44818115 C23.89186478 461.59387512 23.89702606 460.73956909 23.90234375 459.859375 C23.90446617 458.53610199 23.90446617 458.53610199 23.90663147 457.18609619 C23.91221999 454.37402935 23.92477039 451.5620427 23.9375 448.75 C23.94251648 446.84114698 23.94707913 444.93229272 23.95117188 443.0234375 C23.96218566 438.34892753 23.97944242 433.67447735 24 429 C22.96931396 429.16081055 21.93862793 429.32162109 20.87670898 429.48730469 C-5.39984943 432.96238326 -32.78429535 428.95391563 -54.58203125 413.125 C-57.10741558 411.13882984 -59.56047309 409.09045639 -62 407 C-62.76183594 406.37222656 -63.52367187 405.74445313 -64.30859375 405.09765625 C-69.35324231 400.82238217 -73.50676353 396.16654317 -77.61328125 390.9921875 C-80.65108864 387.18374158 -83.81064364 383.48758977 -86.97509766 379.78442383 C-89.83194059 376.42564876 -92.5630463 372.99771729 -95.25 369.5 C-99.8542406 363.74003909 -104.06122197 360.62969831 -111 358.1875 C-117.27603421 355.83398717 -121.28603296 351.58952019 -124.16015625 345.5703125 C-126.26709746 339.12209242 -125.72782816 332.7655577 -122.9375 326.625 C-119.85710924 321.10486956 -116.05913005 318.01971002 -110 316 C-94.52346157 314.42076138 -83.23046516 320.5039216 -71.546875 329.9921875 C-62.8589803 337.45066314 -55.82589481 346.3000901 -48.87304688 355.34472656 C-38.43270129 368.88153311 -26.66277289 381.8758048 -9 385 C1.93900594 386.40576858 12.14015388 385.74739545 23 384 C23.03963867 383.3922876 23.07927734 382.7845752 23.12011719 382.15844727 C24.01208849 369.07825483 25.50266599 356.64812541 29 344 C28.07441284 343.75262085 28.07441284 343.75262085 27.13012695 343.50024414 C-11.32805712 333.09048338 -46.06478808 315.51434688 -68 281 C-68.38639648 280.39349609 -68.77279297 279.78699219 -69.17089844 279.16210938 C-91.53386929 243.35886182 -100.139766 191.27789037 -90.9609375 149.859375 C-90.64382812 148.58578125 -90.32671875 147.3121875 -90 146 C-89.8443457 145.32904297 -89.68869141 144.65808594 -89.52832031 143.96679688 C-85.45538906 126.68326028 -77.45857862 110.3036443 -67 96 C-64.7731233 92.65968495 -64.80353429 92.36615356 -65.4609375 88.66796875 C-65.60321777 87.79825439 -65.74549805 86.92854004 -65.89208984 86.0324707 C-66.0514502 85.09363037 -66.21081055 84.15479004 -66.375 83.1875 C-70.26818775 57.44873146 -69.18596356 27.25675459 -55.61328125 4.1796875 C-44.74484292 -10.50454636 -14.98742929 -5.65404145 0 0 Z " fill="#000000" transform="translate(146,4)"/>
</svg>
